<?xml version="1.0" standalone="no"?>
<!DOCTYPE svg PUBLIC "-//W3C//DTD SVG 20010904//EN"
 "http://www.w3.org/TR/2001/REC-SVG-20010904/DTD/svg10.dtd">
<svg version="1.0" xmlns="http://www.w3.org/2000/svg"
 width="901.000000pt" height="901.000000pt" viewBox="0 0 901.000000 901.000000"
 preserveAspectRatio="xMidYMid meet">
<metadata>
Created by potrace 1.14, written by Peter Selinger 2001-2017
</metadata>
<g transform="translate(0.000000,901.000000) scale(0.100000,-0.100000)"
fill="#000000" stroke="none">
<path d="M1599 8306 c-2 -2 -29 -7 -59 -10 -297 -35 -566 -210 -689 -446 -100
-192 -130 -343 -126 -630 2 -91 6 -206 10 -255 3 -50 8 -121 11 -160 3 -38 7
-80 9 -91 2 -12 6 -61 10 -110 4 -49 9 -98 11 -108 2 -10 6 -51 9 -90 3 -39 8
-82 10 -96 2 -14 7 -57 10 -97 4 -40 8 -85 10 -100 2 -15 6 -62 10 -103 4 -41
8 -85 10 -98 10 -64 20 -278 20 -437 0 -160 -3 -188 -23 -255 -67 -216 -219
-363 -462 -448 -84 -29 -189 -58 -201 -54 -4 0 -6 -110 -5 -245 l1 -247 40 -8
c298 -62 526 -225 605 -435 43 -114 52 -193 45 -398 -3 -104 -7 -206 -9 -225
-2 -19 -7 -71 -10 -115 -4 -44 -9 -98 -11 -120 -2 -22 -7 -67 -10 -100 -6 -57
-8 -80 -20 -200 -3 -27 -8 -72 -11 -100 -2 -27 -7 -66 -9 -85 -3 -19 -7 -69
-10 -110 -3 -41 -8 -86 -10 -100 -2 -14 -6 -65 -10 -115 -3 -49 -9 -115 -12
-145 -11 -113 -9 -454 3 -520 7 -36 15 -81 18 -100 8 -50 48 -166 81 -230 122
-242 364 -416 645 -464 19 -3 46 -9 60 -13 14 -4 463 -9 998 -10 930 -4 972
-3 972 14 1 23 1 4432 0 4456 0 16 -39 17 -685 17 l-685 0 -2 -1972 -3 -1973
-160 1 c-193 0 -293 9 -340 28 -19 8 -35 13 -35 11 0 -12 -86 42 -128 80 -90
81 -133 206 -135 389 -1 101 9 339 18 426 2 19 6 69 10 110 9 107 12 148 19
205 2 28 8 79 11 115 3 36 8 81 10 100 2 19 7 64 10 100 3 36 8 81 10 100 2
19 7 71 11 115 3 44 7 96 9 115 5 55 17 306 20 410 6 280 -55 494 -190 670
-104 135 -277 245 -474 299 -74 21 -97 31 -69 31 26 0 199 60 260 90 271 135
437 384 465 700 11 115 4 471 -12 595 -2 17 -6 66 -10 110 -12 161 -25 296
-40 425 -2 19 -7 67 -10 107 -4 40 -8 85 -10 100 -2 15 -6 69 -10 118 -4 50
-8 97 -10 105 -14 74 -23 442 -13 535 26 227 159 364 383 393 28 3 132 6 232
7 156 0 183 2 184 15 1 22 1 481 0 508 l-1 23 -269 -1 c-148 -1 -270 -3 -272
-4z"/>
<path d="M5569 8293 c-1 -22 0 -7633 0 -7651 1 -11 180 -12 974 -9 534 2 988
7 1007 11 250 53 398 123 528 249 150 145 235 328 269 582 9 65 9 349 -1 490
-11 173 -14 212 -31 370 -2 22 -7 67 -10 100 -6 65 -12 115 -19 185 -3 25 -8
72 -11 105 -3 33 -8 80 -10 105 -32 307 -40 439 -40 640 0 155 3 183 24 250
42 136 104 230 206 313 101 82 214 130 451 192 8 3 11 74 10 246 l-1 242 -100
27 c-116 32 -183 58 -257 99 -146 83 -254 212 -304 363 -27 79 -28 92 -28 283
0 205 8 345 29 530 3 22 7 67 10 100 3 33 8 76 10 95 2 19 7 64 10 100 4 36 8
79 10 95 2 17 6 62 10 100 4 39 9 84 11 100 2 17 6 70 10 119 3 49 7 98 9 108
8 40 19 298 19 428 0 269 -28 406 -122 585 -116 221 -307 360 -602 436 -84 22
-93 22 -1072 26 -946 4 -988 3 -989 -14z m1845 -547 c227 -55 327 -207 329
-501 1 -108 -11 -377 -18 -415 -1 -8 -6 -55 -10 -105 -4 -49 -8 -103 -10 -120
-2 -16 -6 -57 -9 -90 -3 -33 -8 -85 -12 -115 -3 -30 -7 -73 -9 -95 -13 -145
-17 -183 -20 -205 -2 -14 -7 -68 -10 -120 -4 -52 -9 -102 -10 -111 -8 -39 -19
-318 -18 -450 2 -404 147 -676 445 -837 57 -31 203 -84 266 -97 18 -4 32 -9
30 -11 -2 -2 -44 -15 -93 -29 -49 -15 -94 -30 -100 -34 -5 -4 -30 -16 -54 -25
-73 -28 -182 -105 -251 -176 -162 -166 -241 -387 -243 -680 -1 -130 10 -415
18 -462 2 -13 6 -59 10 -103 3 -44 8 -98 10 -120 2 -22 7 -69 10 -105 3 -36 7
-81 10 -100 4 -35 9 -88 20 -215 4 -38 8 -81 10 -95 2 -14 6 -59 10 -100 3
-41 8 -95 10 -120 18 -180 24 -446 12 -541 -20 -172 -109 -295 -253 -351 -91
-34 -143 -41 -361 -42 l-183 -2 0 3297 0 3297 203 -2 c146 -2 221 -8 271 -20z"/>
<path d="M3852 3673 l-1 -3043 688 0 689 0 -2 3042 -1 3043 -686 0 -687 0 0
-3042z"/>
</g>
</svg>
